<svg xmlns="http://www.w3.org/2000/svg" viewBox="0 0 24 24" fill="none">
  <path d="M14 2H6C4.9 2 4 2.9 4 4V20C4 21.1 4.9 22 6 22H18C19.1 22 20 21.1 20 20V8L14 2Z" fill="#E91E63"/>
  <path d="M14 2V8H20L14 2Z" fill="#F48FB1"/>
  <path d="M17 16C17 16.74 16.76 17.42 16.33 17.97L16.89 18.53C17.42 17.83 17.74 16.95 17.74 16C17.74 15.05 17.42 14.17 16.89 13.47L16.33 14.03C16.76 14.58 17 15.26 17 16Z" fill="white"/>
  <path d="M13 16C13 14.34 14.34 13 16 13C16.95 13 17.83 13.42 18.45 14.05L19.14 13.36C18.33 12.55 17.23 12 16 12C13.79 12 12 13.79 12 16C12 18.21 13.79 20 16 20C17.23 20 18.33 19.45 19.14 18.64L18.45 17.95C17.83 18.57 16.95 19 16 19C14.34 19 13 17.66 13 16Z" fill="white"/>
  <path d="M10.5 15.5L8 13L7 14L9.5 16.5L10.5 15.5Z" fill="white"/>
  <path d="M7 14L9.5 16.5L7 19L7 14Z" fill="white"/>
</svg> 