<svg xmlns="http://www.w3.org/2000/svg" viewBox="0 0 24 24" fill="none">
  <path d="M14 2H6C4.9 2 4 2.9 4 4V20C4 21.1 4.9 22 6 22H18C19.1 22 20 21.1 20 20V8L14 2Z" fill="#673AB7"/>
  <path d="M14 2V8H20L14 2Z" fill="#B39DDB"/>
  <path d="M7 13H12V15H7V13Z" fill="white"/>
  <path d="M7 17H12V19H7V17Z" fill="white"/>
  <path d="M7 9H12V11H7V9Z" fill="white"/>
  <path d="M16 9.5C16 8.67 15.33 8 14.5 8C13.67 8 13 8.67 13 9.5C13 10.33 13.67 11 14.5 11C15.33 11 16 10.33 16 9.5Z" fill="white"/>
  <path d="M16 13.5C16 12.67 15.33 12 14.5 12C13.67 12 13 12.67 13 13.5C13 14.33 13.67 15 14.5 15C15.33 15 16 14.33 16 13.5Z" fill="white"/>
  <path d="M16 17.5C16 16.67 15.33 16 14.5 16C13.67 16 13 16.67 13 17.5C13 18.33 13.67 19 14.5 19C15.33 19 16 18.33 16 17.5Z" fill="white"/>
</svg> 