<svg xmlns="http://www.w3.org/2000/svg" viewBox="0 0 24 24" fill="none">
  <path d="M14 2H6C4.9 2 4 2.9 4 4V20C4 21.1 4.9 22 6 22H18C19.1 22 20 21.1 20 20V8L14 2Z" fill="#E53935"/>
  <path d="M14 2V8H20L14 2Z" fill="#FF8A80"/>
  <path d="M10.08 13.5C10.08 14.08 9.99 14.52 9.81 14.82C9.63 15.11 9.37 15.26 9.03 15.26C8.82 15.26 8.65 15.19 8.51 15.05C8.38 14.9 8.31 14.68 8.31 14.4C8.31 14.06 8.41 13.77 8.6 13.52C8.8 13.27 9.12 13.06 9.57 12.89C9.59 12.89 9.64 12.87 9.71 12.84C9.79 12.81 9.84 12.79 9.86 12.78C9.89 12.77 9.95 12.75 10.03 12.73L10.08 13.5ZM10.84 16.39C10.81 16.47 10.69 16.59 10.47 16.76C10.26 16.93 10.1 17.05 9.98 17.13C9.72 17.29 9.46 17.37 9.18 17.37C8.88 17.37 8.69 17.24 8.6 16.97C8.53 16.76 8.5 16.5 8.5 16.18C8.5 15.74 8.56 15.18 8.68 14.5C8.66 14.51 8.6 14.53 8.51 14.57C8.42 14.6 8.36 14.63 8.33 14.64C8.13 14.74 8 14.88 7.94 15.06C7.88 15.24 7.85 15.42 7.85 15.6C7.85 15.67 7.86 15.78 7.88 15.94C7.76 15.91 7.67 15.84 7.61 15.72C7.55 15.61 7.52 15.46 7.52 15.28C7.52 15.02 7.59 14.79 7.72 14.59C7.86 14.39 8.04 14.23 8.28 14.11C8.51 14 8.72 13.92 8.91 13.88C9.1 13.83 9.31 13.81 9.53 13.81L9.63 13.81C9.73 13.27 9.82 12.86 9.9 12.58C9.99 12.29 10.1 12.04 10.22 11.82C10.35 11.6 10.52 11.42 10.73 11.27C10.93 11.12 11.17 11.05 11.44 11.05C11.66 11.05 11.83 11.12 11.95 11.26C12.08 11.4 12.14 11.58 12.14 11.8C12.14 12.08 12.04 12.34 11.83 12.59C11.62 12.84 11.33 13.09 10.94 13.33C10.96 13.44 11 13.71 11.07 14.13C11.14 14.56 11.19 14.85 11.21 15.01C11.24 15.16 11.27 15.3 11.3 15.42C11.33 15.54 11.37 15.63 11.43 15.7C11.49 15.76 11.56 15.79 11.65 15.79C11.75 15.79 11.85 15.77 11.94 15.73C12.04 15.68 12.12 15.64 12.19 15.59C12.26 15.54 12.33 15.49 12.41 15.42C12.49 15.36 12.54 15.32 12.57 15.29L12.85 15.51C12.82 15.55 12.76 15.61 12.67 15.7C12.58 15.79 12.5 15.87 12.43 15.93C12.37 15.99 12.27 16.07 12.14 16.17C12.01 16.27 11.89 16.34 11.77 16.4C11.65 16.45 11.51 16.48 11.35 16.48C11.09 16.48 10.93 16.39 10.84 16.22C10.76 16.05 10.72 15.82 10.72 15.54C10.72 15.43 10.73 15.27 10.74 15.07C10.76 14.87 10.77 14.71 10.77 14.61L10.73 14.24L10.68 13.85L10.62 13.04C10.41 13.14 10.25 13.24 10.14 13.35C10.03 13.45 9.95 13.57 9.91 13.71C10.26 13.6 10.54 13.55 10.74 13.55C10.81 13.55 10.86 13.56 10.88 13.59C10.91 13.61 10.92 13.65 10.92 13.7C10.92 13.76 10.9 13.81 10.87 13.84C10.84 13.88 10.79 13.89 10.73 13.9C10.52 13.91 10.31 13.95 10.1 14.02L10.12 14.21C10.14 14.4 10.15 14.56 10.15 14.69C10.15 15.09 10.16 15.4 10.18 15.61C10.2 15.83 10.22 15.98 10.26 16.07C10.29 16.16 10.34 16.2 10.41 16.2C10.5 16.2 10.56 16.17 10.61 16.11C10.66 16.05 10.71 15.95 10.76 15.81C10.8 15.67 10.83 15.58 10.85 15.54L11.08 15.71C11.03 15.83 10.96 16.01 10.88 16.25C10.81 16.28 10.84 16.32 10.84 16.39ZM11.51 11.36C11.51 11.26 11.5 11.19 11.46 11.15C11.43 11.11 11.38 11.09 11.31 11.09C11.18 11.09 11.06 11.17 10.95 11.32C10.84 11.47 10.74 11.7 10.66 12.01C10.57 12.31 10.5 12.64 10.42 12.99C10.69 12.85 10.92 12.7 11.12 12.53C11.31 12.36 11.45 12.19 11.55 12.03C11.52 12.03 11.51 11.46 11.51 11.36Z" fill="white"/>
  <path d="M13.66 16.18C13.56 16.06 13.51 15.89 13.51 15.68C13.51 15.33 13.64 15.03 13.9 14.79C14.16 14.55 14.49 14.43 14.89 14.43C15.08 14.43 15.25 14.47 15.4 14.55C15.56 14.63 15.68 14.72 15.75 14.83C15.84 14.83 15.93 14.82 16 14.79L16.3 14.62V14.99C16.3 15.23 16.28 15.43 16.25 15.58C16.22 15.74 16.16 15.89 16.07 16.05C15.99 16.2 15.87 16.32 15.72 16.4C15.57 16.49 15.38 16.53 15.16 16.53C14.98 16.53 14.82 16.49 14.7 16.42C14.57 16.35 14.48 16.27 14.42 16.18C14.36 16.09 14.31 15.97 14.28 15.82C14.25 15.68 14.23 15.55 14.23 15.42C14.23 15.24 14.25 15.06 14.28 14.89C14.08 14.95 13.92 15.06 13.82 15.21C13.72 15.37 13.67 15.54 13.67 15.73C13.67 15.87 13.7 16 13.77 16.1C13.83 16.21 13.94 16.27 14.09 16.28L14.02 16.48C13.84 16.46 13.75 16.3 13.66 16.18ZM15.49 16.06C15.6 15.94 15.68 15.81 15.73 15.68C15.78 15.55 15.82 15.4 15.84 15.25C15.86 15.09 15.87 14.91 15.87 14.69C15.8 14.62 15.73 14.56 15.63 14.52C15.54 14.47 15.42 14.45 15.28 14.45C15.1 14.45 14.93 14.51 14.78 14.62C14.63 14.73 14.52 14.89 14.45 15.1C14.37 15.3 14.34 15.53 14.34 15.8C14.34 15.9 14.35 16 14.38 16.08C14.41 16.17 14.47 16.24 14.54 16.3C14.62 16.36 14.73 16.39 14.87 16.39C15.09 16.39 15.38 16.18 15.49 16.06Z" fill="white"/>
  <path d="M18.33 16.18C18.23 16.06 18.18 15.89 18.18 15.68C18.18 15.33 18.31 15.03 18.57 14.79C18.83 14.55 19.16 14.43 19.56 14.43C19.75 14.43 19.92 14.47 20.07 14.55C20.23 14.63 20.35 14.72 20.42 14.83C20.51 14.83 20.6 14.82 20.67 14.79L20.97 14.62V14.99C20.97 15.23 20.95 15.43 20.92 15.58C20.89 15.74 20.83 15.89 20.74 16.05C20.66 16.2 20.54 16.32 20.39 16.4C20.24 16.49 20.05 16.53 19.83 16.53C19.65 16.53 19.49 16.49 19.37 16.42C19.24 16.35 19.15 16.27 19.09 16.18C19.03 16.09 18.98 15.97 18.95 15.82C18.92 15.68 18.9 15.55 18.9 15.42C18.9 15.24 18.92 15.06 18.95 14.89C18.75 14.95 18.59 15.06 18.49 15.21C18.39 15.37 18.34 15.54 18.34 15.73C18.34 15.87 18.37 16 18.44 16.1C18.5 16.21 18.61 16.27 18.76 16.28L18.69 16.48C18.51 16.46 18.42 16.3 18.33 16.18ZM20.16 16.06C20.27 15.94 20.35 15.81 20.4 15.68C20.45 15.55 20.49 15.4 20.51 15.25C20.53 15.09 20.54 14.91 20.54 14.69C20.47 14.62 20.4 14.56 20.3 14.52C20.21 14.47 20.09 14.45 19.95 14.45C19.77 14.45 19.6 14.51 19.45 14.62C19.3 14.73 19.19 14.89 19.12 15.1C19.04 15.3 19.01 15.53 19.01 15.8C19.01 15.9 19.02 16 19.05 16.08C19.08 16.17 19.14 16.24 19.21 16.3C19.29 16.36 19.4 16.39 19.54 16.39C19.76 16.39 20.05 16.18 20.16 16.06Z" fill="white"/>
</svg> 